<mxfile host="app.diagrams.net" modified="2023-06-27T09:32:53.749Z" agent="Mozilla/5.0 (Windows NT 10.0; Win64; x64) AppleWebKit/537.36 (KHTML, like Gecko) Chrome/114.0.0.0 Safari/537.36" version="21.5.1" etag="QJtLl3-h809DzFMK7YSu" type="github">
  <diagram name="Page-1" id="5p0BA2A8pl8I0U0pEoGy">
    <mxGraphModel>
      <root>
        <mxCell id="0" />
        <mxCell id="1" parent="0" />
      </root>
    </mxGraphModel>
  </diagram>
</mxfile>
